<mxfile host="app.diagrams.net" modified="2024-06-28T17:59:05.812Z" agent="Mozilla/5.0 (Macintosh; Intel Mac OS X 10_15_7) AppleWebKit/537.36 (KHTML, like Gecko) Chrome/122.0.0.0 Safari/537.36" etag="kItyGiMV5J5AyovKLktt" version="24.5.5" type="github">
  <diagram name="Page-1" id="dBNUJyARYOMgceDAebyf">
    <mxGraphModel dx="2283" dy="713" grid="1" gridSize="10" guides="1" tooltips="1" connect="1" arrows="1" fold="1" page="1" pageScale="1" pageWidth="827" pageHeight="1169" math="0" shadow="0">
      <root>
        <mxCell id="0" />
        <mxCell id="1" parent="0" />
        <mxCell id="WOwxDYCid0a7wtoTyOwM-10" style="edgeStyle=orthogonalEdgeStyle;rounded=0;orthogonalLoop=1;jettySize=auto;html=1;entryX=0;entryY=0.5;entryDx=0;entryDy=0;" edge="1" parent="1" source="WOwxDYCid0a7wtoTyOwM-1" target="WOwxDYCid0a7wtoTyOwM-4">
          <mxGeometry relative="1" as="geometry" />
        </mxCell>
        <mxCell id="WOwxDYCid0a7wtoTyOwM-15" style="edgeStyle=orthogonalEdgeStyle;rounded=0;orthogonalLoop=1;jettySize=auto;html=1;exitX=0.5;exitY=0.5;exitDx=0;exitDy=0;exitPerimeter=0;entryX=0;entryY=0.5;entryDx=0;entryDy=0;" edge="1" parent="1" source="WOwxDYCid0a7wtoTyOwM-1" target="WOwxDYCid0a7wtoTyOwM-14">
          <mxGeometry relative="1" as="geometry">
            <Array as="points">
              <mxPoint x="-420" y="300" />
              <mxPoint x="-420" y="410" />
            </Array>
          </mxGeometry>
        </mxCell>
        <mxCell id="WOwxDYCid0a7wtoTyOwM-19" style="edgeStyle=orthogonalEdgeStyle;rounded=0;orthogonalLoop=1;jettySize=auto;html=1;exitX=0.5;exitY=0.5;exitDx=0;exitDy=0;exitPerimeter=0;entryX=0;entryY=0.5;entryDx=0;entryDy=0;" edge="1" parent="1" source="WOwxDYCid0a7wtoTyOwM-1" target="WOwxDYCid0a7wtoTyOwM-18">
          <mxGeometry relative="1" as="geometry" />
        </mxCell>
        <mxCell id="WOwxDYCid0a7wtoTyOwM-1" value="Utilisateur: Client&lt;span style=&quot;color: rgba(0, 0, 0, 0); font-family: monospace; font-size: 0px; text-align: start;&quot;&gt;%3CmxGraphModel%3E%3Croot%3E%3CmxCell%20id%3D%220%22%2F%3E%3CmxCell%20id%3D%221%22%20parent%3D%220%22%2F%3E%3CmxCell%20id%3D%222%22%20value%3D%22Annuler%20des%20missions%22%20style%3D%22ellipse%3BwhiteSpace%3Dwrap%3Bhtml%3D1%3Balign%3Dcenter%3BnewEdgeStyle%3D%7B%26quot%3BedgeStyle%26quot%3B%3A%26quot%3BentityRelationEdgeStyle%26quot%3B%2C%26quot%3BstartArrow%26quot%3B%3A%26quot%3Bnone%26quot%3B%2C%26quot%3BendArrow%26quot%3B%3A%26quot%3Bnone%26quot%3B%2C%26quot%3Bsegment%26quot%3B%3A10%2C%26quot%3Bcurved%26quot%3B%3A1%2C%26quot%3BsourcePerimeterSpacing%26quot%3B%3A0%2C%26quot%3BtargetPerimeterSpacing%26quot%3B%3A0%7D%3BtreeFolding%3D1%3BtreeMoving%3D1%3B%22%20vertex%3D%221%22%20parent%3D%221%22%3E%3CmxGeometry%20x%3D%22450%22%20y%3D%22400%22%20width%3D%22120%22%20height%3D%2260%22%20as%3D%22geometry%22%2F%3E%3C%2FmxCell%3E%3C%2Froot%3E%3C%2FmxGraphModel%3E&lt;/span&gt;" style="shape=umlActor;verticalLabelPosition=bottom;verticalAlign=top;html=1;" vertex="1" parent="1">
          <mxGeometry x="-550" y="270" width="30" height="60" as="geometry" />
        </mxCell>
        <mxCell id="WOwxDYCid0a7wtoTyOwM-4" value="Créer une mission" style="ellipse;whiteSpace=wrap;html=1;align=center;newEdgeStyle={&quot;edgeStyle&quot;:&quot;entityRelationEdgeStyle&quot;,&quot;startArrow&quot;:&quot;none&quot;,&quot;endArrow&quot;:&quot;none&quot;,&quot;segment&quot;:10,&quot;curved&quot;:1,&quot;sourcePerimeterSpacing&quot;:0,&quot;targetPerimeterSpacing&quot;:0};treeFolding=1;treeMoving=1;" vertex="1" parent="1">
          <mxGeometry x="-320" y="130" width="120" height="60" as="geometry" />
        </mxCell>
        <mxCell id="WOwxDYCid0a7wtoTyOwM-5" value="Recherchez des missions" style="ellipse;whiteSpace=wrap;html=1;align=center;newEdgeStyle={&quot;edgeStyle&quot;:&quot;entityRelationEdgeStyle&quot;,&quot;startArrow&quot;:&quot;none&quot;,&quot;endArrow&quot;:&quot;none&quot;,&quot;segment&quot;:10,&quot;curved&quot;:1,&quot;sourcePerimeterSpacing&quot;:0,&quot;targetPerimeterSpacing&quot;:0};treeFolding=1;treeMoving=1;" vertex="1" parent="1">
          <mxGeometry x="-320" y="220" width="120" height="60" as="geometry" />
        </mxCell>
        <mxCell id="WOwxDYCid0a7wtoTyOwM-11" style="edgeStyle=orthogonalEdgeStyle;rounded=0;orthogonalLoop=1;jettySize=auto;html=1;exitX=0.5;exitY=0.5;exitDx=0;exitDy=0;exitPerimeter=0;entryX=-0.025;entryY=0.65;entryDx=0;entryDy=0;entryPerimeter=0;" edge="1" parent="1" source="WOwxDYCid0a7wtoTyOwM-1" target="WOwxDYCid0a7wtoTyOwM-5">
          <mxGeometry relative="1" as="geometry" />
        </mxCell>
        <mxCell id="WOwxDYCid0a7wtoTyOwM-14" value="Déposer de l&#39;argent&lt;span style=&quot;color: rgba(0, 0, 0, 0); font-family: monospace; font-size: 0px; text-align: start; text-wrap: nowrap;&quot;&gt;%3CmxGraphModel%3E%3Croot%3E%3CmxCell%20id%3D%220%22%2F%3E%3CmxCell%20id%3D%221%22%20parent%3D%220%22%2F%3E%3CmxCell%20id%3D%222%22%20value%3D%22Recherchez%20des%20missions%22%20style%3D%22ellipse%3BwhiteSpace%3Dwrap%3Bhtml%3D1%3Balign%3Dcenter%3BnewEdgeStyle%3D%7B%26quot%3BedgeStyle%26quot%3B%3A%26quot%3BentityRelationEdgeStyle%26quot%3B%2C%26quot%3BstartArrow%26quot%3B%3A%26quot%3Bnone%26quot%3B%2C%26quot%3BendArrow%26quot%3B%3A%26quot%3Bnone%26quot%3B%2C%26quot%3Bsegment%26quot%3B%3A10%2C%26quot%3Bcurved%26quot%3B%3A1%2C%26quot%3BsourcePerimeterSpacing%26quot%3B%3A0%2C%26quot%3BtargetPerimeterSpacing%26quot%3B%3A0%7D%3BtreeFolding%3D1%3BtreeMoving%3D1%3B%22%20vertex%3D%221%22%20parent%3D%221%22%3E%3CmxGeometry%20x%3D%22280%22%20y%3D%22190%22%20width%3D%22120%22%20height%3D%2260%22%20as%3D%22geometry%22%2F%3E%3C%2FmxCell%3E%3C%2Froot%3E%3C%2FmxGraphModel%3E&lt;/span&gt;" style="ellipse;whiteSpace=wrap;html=1;align=center;newEdgeStyle={&quot;edgeStyle&quot;:&quot;entityRelationEdgeStyle&quot;,&quot;startArrow&quot;:&quot;none&quot;,&quot;endArrow&quot;:&quot;none&quot;,&quot;segment&quot;:10,&quot;curved&quot;:1,&quot;sourcePerimeterSpacing&quot;:0,&quot;targetPerimeterSpacing&quot;:0};treeFolding=1;treeMoving=1;" vertex="1" parent="1">
          <mxGeometry x="-310" y="350" width="120" height="60" as="geometry" />
        </mxCell>
        <mxCell id="WOwxDYCid0a7wtoTyOwM-21" value="" style="edgeStyle=entityRelationEdgeStyle;rounded=0;orthogonalLoop=1;jettySize=auto;html=1;startArrow=none;endArrow=none;segment=10;curved=1;sourcePerimeterSpacing=0;targetPerimeterSpacing=0;" edge="1" parent="1" source="WOwxDYCid0a7wtoTyOwM-18" target="WOwxDYCid0a7wtoTyOwM-20">
          <mxGeometry relative="1" as="geometry" />
        </mxCell>
        <mxCell id="WOwxDYCid0a7wtoTyOwM-18" value="Gérer ses missions&lt;span style=&quot;color: rgba(0, 0, 0, 0); font-family: monospace; font-size: 0px; text-align: start; text-wrap: nowrap;&quot;&gt;%3CmxGraphModel%3E%3Croot%3E%3CmxCell%20id%3D%220%22%2F%3E%3CmxCell%20id%3D%221%22%20parent%3D%220%22%2F%3E%3CmxCell%20id%3D%222%22%20value%3D%22Recherchez%20des%20missions%22%20style%3D%22ellipse%3BwhiteSpace%3Dwrap%3Bhtml%3D1%3Balign%3Dcenter%3BnewEdgeStyle%3D%7B%26quot%3BedgeStyle%26quot%3B%3A%26quot%3BentityRelationEdgeStyle%26quot%3B%2C%26quot%3BstartArrow%26quot%3B%3A%26quot%3Bnone%26quot%3B%2C%26quot%3BendArrow%26quot%3B%3A%26quot%3Bnone%26quot%3B%2C%26quot%3Bsegment%26quot%3B%3A10%2C%26quot%3Bcurved%26quot%3B%3A1%2C%26quot%3BsourcePerimeterSpacing%26quot%3B%3A0%2C%26quot%3BtargetPerimeterSpacing%26quot%3B%3A0%7D%3BtreeFolding%3D1%3BtreeMoving%3D1%3B%22%20vertex%3D%221%22%20parent%3D%221%22%3E%3CmxGeometry%20x%3D%22280%22%20y%3D%22190%22%20width%3D%22120%22%20height%3D%2260%22%20as%3D%22geometry%22%2F%3E%3C%2FmxCell%3E%3C%2Froot%3E%3C%2FmxGraphModel%3E&lt;/span&gt;" style="ellipse;whiteSpace=wrap;html=1;align=center;newEdgeStyle={&quot;edgeStyle&quot;:&quot;entityRelationEdgeStyle&quot;,&quot;startArrow&quot;:&quot;none&quot;,&quot;endArrow&quot;:&quot;none&quot;,&quot;segment&quot;:10,&quot;curved&quot;:1,&quot;sourcePerimeterSpacing&quot;:0,&quot;targetPerimeterSpacing&quot;:0};treeFolding=1;treeMoving=1;" vertex="1" parent="1">
          <mxGeometry x="-320" y="480" width="120" height="60" as="geometry" />
        </mxCell>
        <mxCell id="WOwxDYCid0a7wtoTyOwM-20" value="Annuler des missions" style="ellipse;whiteSpace=wrap;html=1;align=center;newEdgeStyle={&quot;edgeStyle&quot;:&quot;entityRelationEdgeStyle&quot;,&quot;startArrow&quot;:&quot;none&quot;,&quot;endArrow&quot;:&quot;none&quot;,&quot;segment&quot;:10,&quot;curved&quot;:1,&quot;sourcePerimeterSpacing&quot;:0,&quot;targetPerimeterSpacing&quot;:0};treeFolding=1;treeMoving=1;" vertex="1" parent="1">
          <mxGeometry x="-150" y="440" width="120" height="60" as="geometry" />
        </mxCell>
        <mxCell id="WOwxDYCid0a7wtoTyOwM-26" value="Annuler des missions" style="ellipse;whiteSpace=wrap;html=1;align=center;newEdgeStyle={&quot;edgeStyle&quot;:&quot;entityRelationEdgeStyle&quot;,&quot;startArrow&quot;:&quot;none&quot;,&quot;endArrow&quot;:&quot;none&quot;,&quot;segment&quot;:10,&quot;curved&quot;:1,&quot;sourcePerimeterSpacing&quot;:0,&quot;targetPerimeterSpacing&quot;:0};treeFolding=1;treeMoving=1;" vertex="1" parent="1">
          <mxGeometry x="-120" y="560" width="120" height="60" as="geometry" />
        </mxCell>
        <mxCell id="WOwxDYCid0a7wtoTyOwM-27" style="edgeStyle=entityRelationEdgeStyle;rounded=0;orthogonalLoop=1;jettySize=auto;html=1;startArrow=none;endArrow=none;segment=10;curved=1;sourcePerimeterSpacing=0;targetPerimeterSpacing=0;exitX=1;exitY=1;exitDx=0;exitDy=0;entryX=0.022;entryY=0.653;entryDx=0;entryDy=0;entryPerimeter=0;" edge="1" parent="1" source="WOwxDYCid0a7wtoTyOwM-18" target="WOwxDYCid0a7wtoTyOwM-26">
          <mxGeometry relative="1" as="geometry" />
        </mxCell>
        <mxCell id="WOwxDYCid0a7wtoTyOwM-30" style="edgeStyle=orthogonalEdgeStyle;rounded=0;orthogonalLoop=1;jettySize=auto;html=1;exitX=0.5;exitY=0.5;exitDx=0;exitDy=0;exitPerimeter=0;" edge="1" parent="1" source="WOwxDYCid0a7wtoTyOwM-28" target="WOwxDYCid0a7wtoTyOwM-29">
          <mxGeometry relative="1" as="geometry" />
        </mxCell>
        <mxCell id="WOwxDYCid0a7wtoTyOwM-32" style="edgeStyle=orthogonalEdgeStyle;rounded=0;orthogonalLoop=1;jettySize=auto;html=1;exitX=0.5;exitY=0.5;exitDx=0;exitDy=0;exitPerimeter=0;entryX=0;entryY=0.5;entryDx=0;entryDy=0;" edge="1" parent="1" source="WOwxDYCid0a7wtoTyOwM-28" target="WOwxDYCid0a7wtoTyOwM-31">
          <mxGeometry relative="1" as="geometry" />
        </mxCell>
        <mxCell id="WOwxDYCid0a7wtoTyOwM-35" style="edgeStyle=orthogonalEdgeStyle;rounded=0;orthogonalLoop=1;jettySize=auto;html=1;exitX=0.5;exitY=0.5;exitDx=0;exitDy=0;exitPerimeter=0;entryX=0;entryY=0.5;entryDx=0;entryDy=0;" edge="1" parent="1" source="WOwxDYCid0a7wtoTyOwM-28" target="WOwxDYCid0a7wtoTyOwM-34">
          <mxGeometry relative="1" as="geometry" />
        </mxCell>
        <mxCell id="WOwxDYCid0a7wtoTyOwM-28" value="Utilisateur: Livreur&lt;span style=&quot;color: rgba(0, 0, 0, 0); font-family: monospace; font-size: 0px; text-align: start;&quot;&gt;%3CmxGraphModel%3E%3Croot%3E%3CmxCell%20id%3D%220%22%2F%3E%3CmxCell%20id%3D%221%22%20parent%3D%220%22%2F%3E%3CmxCell%20id%3D%222%22%20value%3D%22Annuler%20des%20missions%22%20style%3D%22ellipse%3BwhiteSpace%3Dwrap%3Bhtml%3D1%3Balign%3Dcenter%3BnewEdgeStyle%3D%7B%26quot%3BedgeStyle%26quot%3B%3A%26quot%3BentityRelationEdgeStyle%26quot%3B%2C%26quot%3BstartArrow%26quot%3B%3A%26quot%3Bnone%26quot%3B%2C%26quot%3BendArrow%26quot%3B%3A%26quot%3Bnone%26quot%3B%2C%26quot%3Bsegment%26quot%3B%3A10%2C%26quot%3Bcurved%26quot%3B%3A1%2C%26quot%3BsourcePerimeterSpacing%26quot%3B%3A0%2C%26quot%3BtargetPerimeterSpacing%26quot%3B%3A0%7D%3BtreeFolding%3D1%3BtreeMoving%3D1%3B%22%20vertex%3D%221%22%20parent%3D%221%22%3E%3CmxGeometry%20x%3D%22450%22%20y%3D%22400%22%20width%3D%22120%22%20height%3D%2260%22%20as%3D%22geometry%22%2F%3E%3C%2FmxCell%3E%3C%2Froot%3E%3C%2FmxGraphModel%3E&lt;/span&gt;" style="shape=umlActor;verticalLabelPosition=bottom;verticalAlign=top;html=1;" vertex="1" parent="1">
          <mxGeometry x="-710" y="700" width="30" height="60" as="geometry" />
        </mxCell>
        <mxCell id="WOwxDYCid0a7wtoTyOwM-29" value="Recherchez des missions" style="ellipse;whiteSpace=wrap;html=1;align=center;newEdgeStyle={&quot;edgeStyle&quot;:&quot;entityRelationEdgeStyle&quot;,&quot;startArrow&quot;:&quot;none&quot;,&quot;endArrow&quot;:&quot;none&quot;,&quot;segment&quot;:10,&quot;curved&quot;:1,&quot;sourcePerimeterSpacing&quot;:0,&quot;targetPerimeterSpacing&quot;:0};treeFolding=1;treeMoving=1;" vertex="1" parent="1">
          <mxGeometry x="-580" y="650" width="120" height="60" as="geometry" />
        </mxCell>
        <mxCell id="WOwxDYCid0a7wtoTyOwM-31" value="&lt;div style=&quot;text-align: start;&quot;&gt;Gestion du solde&lt;/div&gt;" style="ellipse;whiteSpace=wrap;html=1;align=center;newEdgeStyle={&quot;edgeStyle&quot;:&quot;entityRelationEdgeStyle&quot;,&quot;startArrow&quot;:&quot;none&quot;,&quot;endArrow&quot;:&quot;none&quot;,&quot;segment&quot;:10,&quot;curved&quot;:1,&quot;sourcePerimeterSpacing&quot;:0,&quot;targetPerimeterSpacing&quot;:0};treeFolding=1;treeMoving=1;" vertex="1" parent="1">
          <mxGeometry x="-580" y="830" width="120" height="60" as="geometry" />
        </mxCell>
        <mxCell id="WOwxDYCid0a7wtoTyOwM-34" value="Accepter/Refuser des missions" style="ellipse;whiteSpace=wrap;html=1;align=center;newEdgeStyle={&quot;edgeStyle&quot;:&quot;entityRelationEdgeStyle&quot;,&quot;startArrow&quot;:&quot;none&quot;,&quot;endArrow&quot;:&quot;none&quot;,&quot;segment&quot;:10,&quot;curved&quot;:1,&quot;sourcePerimeterSpacing&quot;:0,&quot;targetPerimeterSpacing&quot;:0};treeFolding=1;treeMoving=1;" vertex="1" parent="1">
          <mxGeometry x="-580" y="740" width="120" height="60" as="geometry" />
        </mxCell>
        <mxCell id="WOwxDYCid0a7wtoTyOwM-41" value="Gérer ces missions" style="ellipse;whiteSpace=wrap;html=1;align=center;newEdgeStyle={&quot;edgeStyle&quot;:&quot;entityRelationEdgeStyle&quot;,&quot;startArrow&quot;:&quot;none&quot;,&quot;endArrow&quot;:&quot;none&quot;,&quot;segment&quot;:10,&quot;curved&quot;:1,&quot;sourcePerimeterSpacing&quot;:0,&quot;targetPerimeterSpacing&quot;:0};treeFolding=1;treeMoving=1;" vertex="1" parent="1">
          <mxGeometry x="-580" y="920" width="120" height="60" as="geometry" />
        </mxCell>
        <mxCell id="WOwxDYCid0a7wtoTyOwM-44" style="edgeStyle=orthogonalEdgeStyle;rounded=0;orthogonalLoop=1;jettySize=auto;html=1;exitX=0.5;exitY=0.5;exitDx=0;exitDy=0;exitPerimeter=0;entryX=-0.005;entryY=0.617;entryDx=0;entryDy=0;entryPerimeter=0;" edge="1" parent="1" source="WOwxDYCid0a7wtoTyOwM-28" target="WOwxDYCid0a7wtoTyOwM-41">
          <mxGeometry relative="1" as="geometry" />
        </mxCell>
      </root>
    </mxGraphModel>
  </diagram>
</mxfile>
